<?xml version="1.0" encoding="UTF-8"?>
<svg id="Layer_1" data-name="Layer 1" xmlns="http://www.w3.org/2000/svg" viewBox="0 0 662.53 214.12">
  <defs>
    <style>
      .cls-1 {
        letter-spacing: -.01em;
      }

      .cls-2, .cls-3 {
        fill: #fff;
      }

      .cls-3 {
        font-family: Miamo-Script, Miamo;
        font-size: 79.27px;
      }

      .cls-4 {
        fill: none;
        stroke: #fff;
        stroke-linecap: round;
        stroke-linejoin: round;
        stroke-width: 5px;
      }

      .cls-5 {
        letter-spacing: 0em;
      }
    </style>
  </defs>
  <g>
    <g>
      <path class="cls-4" d="m112.24,21.12c0,10.28-8.34,18.62-18.62,18.62s-18.62-8.34-18.62-18.62S83.33,2.5,93.62,2.5s18.62,8.34,18.62,18.62Z"/>
      <path class="cls-4" d="m117.43,71.49s8.98,42.75,67.68,71.51"/>
      <path class="cls-4" d="m69.78,71.49S61.2,114.23,2.5,142.99"/>
      <g>
        <path class="cls-4" d="m82.93,130.91c-5.75-10.88-10.86-22.37-13.47-34.44-2.14-9.9-2.63-21.04,2.65-30.08,4.31-7.38,12.74-13.72,21.52-13.91"/>
        <path class="cls-4" d="m81.1,127.38c3.13,6.18,8.56,13.37,12.75,18.88"/>
      </g>
      <g>
        <path class="cls-4" d="m104.15,130.91c5.75-10.88,10.86-22.37,13.47-34.44,2.14-9.9,2.63-21.04-2.65-30.08-4.31-7.38-12.74-13.72-21.52-13.91"/>
        <path class="cls-4" d="m105.98,127.38c-3.38,6.69-7.53,12.97-12.13,18.88"/>
      </g>
    </g>
    <g>
      <path class="cls-4" d="m36.35,167.53c13.2-17.58,44.66-3.26,60.12,3.94,16.28,7.58,34.94,19.21,53.47,17.73,14.77-1.18,27.15-11.61,27.15-27.27,0-15.06-12.21-27.27-27.27-27.27s-55.99,27.27-55.99,27.27"/>
      <path class="cls-4" d="m151.35,156.33c-13.2,17.58-44.66,3.26-60.12-3.94-16.28-7.58-34.94-19.21-53.47-17.73-14.77,1.18-27.15,11.61-27.15,27.27,0,15.06,12.21,27.27,27.27,27.27,15.06,0,55.99-27.27,55.99-27.27"/>
    </g>
  </g>
  <g>
    <path class="cls-2" d="m217.54,6.31c0-.69-.06-1.18-.19-1.49-.13-.3-.32-.58-.58-.84s-.39-.56-.39-.9h15.96c5.04,0,9.34,1.07,12.89,3.2,3.55,2.13,6.24,4.93,8.04,8.4,1.81,3.47,2.71,7.16,2.71,11.08s-.9,7.54-2.71,10.98c-1.81,3.45-4.49,6.24-8.04,8.37-3.55,2.13-7.85,3.2-12.89,3.2h-14.8V6.31Zm13.63,40.64c4.05,0,7.52-1,10.4-3,2.89-2,5.05-4.63,6.49-7.88,1.44-3.25,2.16-6.73,2.16-10.43s-.72-7.11-2.16-10.34c-1.44-3.23-3.58-5.85-6.4-7.85-2.82-2-6.24-3-10.24-3h-8.34v42.52h8.08Z"/>
    <path class="cls-2" d="m265.45,9.35c-.8-.78-1.2-1.72-1.2-2.84s.4-2.07,1.2-2.84c.8-.78,1.75-1.16,2.88-1.16s2.07.39,2.84,1.16c.78.78,1.16,1.72,1.16,2.84s-.39,2.07-1.16,2.84c-.78.78-1.72,1.16-2.84,1.16s-2.08-.39-2.88-1.16Zm.16,9.89c0-1.03-.14-1.74-.42-2.13-.28-.39-.42-.75-.42-1.1h6.2v32.31h-5.36v-29.08Z"/>
    <path class="cls-2" d="m282.48,19.23c0-1.03-.14-1.74-.42-2.13-.28-.39-.42-.75-.42-1.1h5.82v5.49c1.77-1.94,3.89-3.45,6.36-4.52,2.48-1.08,4.9-1.62,7.27-1.62,2.58,0,4.6.4,6.04,1.2,1.44.8,2.48,2.12,3.1,3.97.62,1.85.94,4.44.94,7.75v7.75c0,3.49.04,5.98.13,7.46.09,1.49.27,2.52.55,3.1.28.58.74.98,1.39,1.2v.52h-5.36c-.65-.22-1.11-.6-1.39-1.16-.28-.56-.46-1.53-.55-2.91-.09-1.38-.13-3.62-.13-6.72v-8.85c0-2.71-.14-4.88-.42-6.49-.28-1.62-.89-2.89-1.84-3.81-.95-.93-2.37-1.39-4.26-1.39s-3.92.6-6.2,1.81c-2.28,1.21-4.03,2.71-5.23,4.52v25.01h-5.36v-29.08Z"/>
    <path class="cls-2" d="m341.14,6.31c0-.69-.06-1.18-.19-1.49-.13-.3-.32-.58-.58-.84-.26-.26-.39-.56-.39-.9h6.72v45.23h-5.56V6.31Z"/>
    <path class="cls-2" d="m358.65,19.23c0-1.03-.14-1.74-.42-2.13-.28-.39-.42-.75-.42-1.1h5.82v5.49c1.77-1.94,3.89-3.45,6.36-4.52,2.48-1.08,4.9-1.62,7.27-1.62,2.58,0,4.6.4,6.04,1.2,1.44.8,2.48,2.12,3.1,3.97.62,1.85.94,4.44.94,7.75v7.75c0,3.49.04,5.98.13,7.46.09,1.49.27,2.52.55,3.1.28.58.74.98,1.39,1.2v.52h-5.36c-.65-.22-1.11-.6-1.39-1.16-.28-.56-.46-1.53-.55-2.91-.09-1.38-.13-3.62-.13-6.72v-8.85c0-2.71-.14-4.88-.42-6.49-.28-1.62-.89-2.89-1.84-3.81-.95-.93-2.37-1.39-4.26-1.39s-3.92.6-6.2,1.81c-2.28,1.21-4.03,2.71-5.23,4.52v25.01h-5.36v-29.08Z"/>
    <path class="cls-2" d="m403.56,46.57c-2.46-1.59-4.31-3.67-5.56-6.24-1.25-2.56-1.87-5.29-1.87-8.17s.62-5.69,1.87-8.27c1.25-2.58,3.07-4.65,5.46-6.2,2.39-1.55,5.2-2.33,8.43-2.33,2.58,0,4.88.48,6.88,1.45,2,.97,3.59,2.32,4.75,4.04V5.67c0-1.03-.14-1.74-.42-2.13-.28-.39-.42-.75-.42-1.1h6.2v33.86c0,3.4.04,5.83.13,7.27.09,1.44.27,2.46.55,3.04.28.58.74.98,1.39,1.2v.52h-5.36c-.69-.22-1.17-.66-1.45-1.32-.28-.67-.46-1.95-.55-3.84-1.16,1.85-2.75,3.29-4.75,4.3-2,1.01-4.19,1.52-6.56,1.52-3.36,0-6.27-.8-8.72-2.39Zm16.06-1.23c1.83-1.38,3.13-3.17,3.91-5.36v-15.77c-.69-2.15-1.97-3.92-3.84-5.3-1.87-1.38-4-2.07-6.36-2.07s-4.51.72-6.3,2.16c-1.79,1.44-3.13,3.34-4.04,5.69-.9,2.35-1.36,4.84-1.36,7.46s.45,5.04,1.36,7.37c.9,2.33,2.25,4.22,4.04,5.69,1.79,1.46,3.91,2.2,6.36,2.2,2.33,0,4.4-.69,6.24-2.07Z"/>
    <path class="cls-2" d="m440.13,19.23c0-1.03-.14-1.74-.42-2.13-.28-.39-.42-.75-.42-1.1h5.82v5.69c1.72-1.94,3.58-3.49,5.56-4.65,1.98-1.16,3.88-1.74,5.69-1.74,1.29,0,2.36.32,3.2.97s1.26,1.51,1.26,2.58c0,.95-.32,1.76-.97,2.42-.65.67-1.44,1-2.39,1s-1.76-.33-2.42-1c-.67-.67-1-1.47-1-2.42,0-.52.11-.99.32-1.42h-.45c-1.46.09-2.96.75-4.49,2-1.53,1.25-2.83,2.61-3.91,4.07v24.81h-5.36v-29.08Z"/>
    <path class="cls-2" d="m473.12,46.86c-2.82-1.4-5.03-3.37-6.62-5.91-1.59-2.54-2.39-5.47-2.39-8.79s.79-6.37,2.36-8.92c1.57-2.54,3.69-4.49,6.36-5.85,2.67-1.36,5.62-2.04,8.85-2.04s5.95.71,8.43,2.13c2.48,1.42,4.4,3.45,5.78,6.07,1.38,2.63,2.05,5.64,2,9.05h-28.3c.09,2.89.68,5.48,1.78,7.79,1.1,2.3,2.65,4.13,4.65,5.46,2,1.34,4.32,2,6.95,2,3.96,0,7.5-1.92,10.6-5.75l2.84,1.55c-1.51,1.72-3.46,3.04-5.85,3.94s-5.01,1.36-7.85,1.36c-3.58,0-6.77-.7-9.6-2.1Zm19.55-15.54c0-4.65-.98-8.29-2.94-10.92-1.96-2.63-4.56-3.94-7.79-3.94-2.54,0-4.72.68-6.53,2.04-1.81,1.36-3.2,3.17-4.17,5.43-.97,2.26-1.52,4.73-1.65,7.4h23.07Z"/>
    <path class="cls-2" d="m521.67,52.06c1.64-1.12,2.78-1.97,3.42-2.55.65-.58,1.08-1.17,1.29-1.78.22-.6.32-1.49.32-2.65V6.31c0-.69-.06-1.18-.19-1.49-.13-.3-.32-.58-.58-.84s-.39-.56-.39-.9h6.72v41.48c0,1.03-.25,1.94-.74,2.71-.5.78-1.5,1.64-3,2.58-1.51.95-3.79,2.11-6.85,3.49v-1.29Z"/>
    <path class="cls-2" d="m547.52,47.7c-1.42-.8-2.43-2.12-3.04-3.97-.6-1.85-.9-4.41-.9-7.69v-16.8c0-1.03-.14-1.74-.42-2.13-.28-.39-.42-.75-.42-1.1h6.2v19.64c0,2.8.11,4.97.32,6.49.22,1.53.79,2.78,1.71,3.75.93.97,2.42,1.45,4.49,1.45,1.85,0,3.91-.6,6.17-1.81,2.26-1.21,4.02-2.71,5.27-4.52v-21.77c0-1.03-.14-1.74-.42-2.13-.28-.39-.42-.75-.42-1.1h6.2v21c0,3.14.04,5.4.13,6.75.09,1.36.27,2.32.55,2.88.28.56.74.95,1.39,1.16v.52h-5.36c-.69-.22-1.19-.67-1.49-1.36-.3-.69-.47-2-.52-3.94-1.81,1.85-3.93,3.31-6.36,4.36-2.43,1.06-4.81,1.58-7.14,1.58-2.54-.04-4.52-.46-5.94-1.26Z"/>
    <path class="cls-2" d="m581.18,18.91c-.22-.43-.58-.97-1.1-1.62-.22-.22-.37-.41-.45-.58-.09-.17-.13-.41-.13-.71h6.27l11.18,27.33,10.92-27.33h1.62l-12.92,32.31h-3.42l-11.95-29.4Z"/>
    <path class="cls-2" d="m623.4,46.86c-2.82-1.4-5.03-3.37-6.62-5.91-1.59-2.54-2.39-5.47-2.39-8.79s.79-6.37,2.36-8.92c1.57-2.54,3.69-4.49,6.36-5.85,2.67-1.36,5.62-2.04,8.85-2.04s5.95.71,8.43,2.13c2.48,1.42,4.4,3.45,5.78,6.07,1.38,2.63,2.05,5.64,2,9.05h-28.3c.09,2.89.68,5.48,1.78,7.79,1.1,2.3,2.65,4.13,4.65,5.46,2,1.34,4.32,2,6.95,2,3.96,0,7.5-1.92,10.6-5.75l2.84,1.55c-1.51,1.72-3.46,3.04-5.85,3.94s-5.01,1.36-7.85,1.36c-3.58,0-6.77-.7-9.6-2.1Zm19.55-15.54c0-4.65-.98-8.29-2.94-10.92-1.96-2.63-4.56-3.94-7.79-3.94-2.54,0-4.72.68-6.53,2.04-1.81,1.36-3.2,3.17-4.17,5.43-.97,2.26-1.52,4.73-1.65,7.4h23.07Z"/>
    <path class="cls-2" d="m657.17,5.67c0-1.03-.14-1.74-.42-2.13-.28-.39-.42-.75-.42-1.1h6.2v45.88h-5.36V5.67Z"/>
  </g>
  <text class="cls-3" transform="translate(216.54 134.84)"><tspan x="0" y="0">En holistisk bl</tspan><tspan class="cls-1" x="387.81" y="0">o</tspan><tspan class="cls-5" x="404.77" y="0">g</tspan></text>
</svg>