<?xml version="1.0" encoding="utf-8"?>
<!-- Generator: Adobe Illustrator 26.2.1, SVG Export Plug-In . SVG Version: 6.00 Build 0)  -->
<svg version="1.1" id="a" xmlns="http://www.w3.org/2000/svg" xmlns:xlink="http://www.w3.org/1999/xlink" x="0px" y="0px"
	 viewBox="0 0 350.5 227.5" style="enable-background:new 0 0 350.5 227.5;" xml:space="preserve">
<style type="text/css">
	.st0{fill:#313130;}
	.st1{fill:#FFFFFF;}
</style>
<ellipse class="st0" cx="175.5" cy="117.3" rx="170.5" ry="53.3"/>
<g>
	<path class="st1" d="M91.9,139.4l-23,1.8c-0.1-1.5-0.3-3.2-0.5-5.1c-0.2-1.9-0.4-3.6-0.7-5.2h-6.4c-0.2,1.6-0.4,3.4-0.6,5.3
		c-0.2,1.9-0.4,3.6-0.6,5.1l-22.7-2c1.2-3.8,3.3-11.4,6.6-22.8c3.2-11.4,5.7-19.9,7.3-25.6h26.8c1.8,6.1,4.3,14.7,7.5,26
		C88.7,128.1,90.8,135.7,91.9,139.4L91.9,139.4z M66.6,120.5c-0.3-1.8-0.6-4.4-0.9-7.7c-0.3-3.3-0.6-5.9-0.9-7.6l-0.5-0.1
		c-0.3,1.8-0.6,4.4-0.9,7.8c-0.3,3.4-0.6,5.9-0.9,7.7v0.1L66.6,120.5L66.6,120.5L66.6,120.5z"/>
	<path class="st1" d="M129.3,128.6c0,2.2-0.7,4.1-2.2,5.7c-1.4,1.6-3.4,2.9-5.9,4c-2.2,0.9-5.1,1.6-8.8,2.1
		c-3.7,0.5-7.2,0.8-10.5,0.9c-1.9,0-3.6,0.1-5,0.1c-1.4,0-2.6,0-3.7,0L91,130c0.8,0,1.6,0,2.3,0s1.7,0,2.8,0c1.1,0,2-0.1,2.8-0.2
		c0.8-0.1,1.6-0.2,2.3-0.3c0.9-0.2,1.6-0.4,2-0.6c0.4-0.2,0.6-0.6,0.6-0.9c0-0.4-0.2-0.8-0.7-1.2c-0.5-0.4-1.2-0.9-2.2-1.7
		c-0.5-0.3-1-0.7-1.6-1.1c-0.6-0.4-1.2-0.9-1.8-1.4c-1.5-1.3-2.7-2.6-3.4-3.9s-1.1-2.7-1.1-4.3c0-1.9,0.6-3.6,1.8-5.1
		c1.2-1.5,3.3-2.9,6.3-4.2c2.3-1,5.3-1.7,9-2.2c3.7-0.5,7.2-0.9,10.4-1c1.8-0.1,3.1-0.1,4.1-0.1c1,0,1.9,0,2.5,0l2,11.6
		c-0.4,0-0.7,0-1,0c-0.3,0-0.7,0-1.2,0c-1.2,0-2.3,0-3.3,0.1c-1,0.1-2,0.1-3,0.3c-0.7,0.1-1.2,0.3-1.7,0.5s-0.8,0.5-0.8,1
		s0.2,0.9,0.7,1.4c0.5,0.5,1.1,1,1.8,1.5c0.6,0.4,1.2,0.8,1.9,1.2c0.6,0.4,1.2,0.8,1.8,1.2c1.6,1.2,2.8,2.4,3.6,3.7
		C128.8,125.4,129.2,126.9,129.3,128.6L129.3,128.6z"/>
	<path class="st1" d="M172.4,122.8h-20.5c0,1.4,0.3,2.5,1,3.3c0.7,0.8,1.7,1.5,3.1,2.1c1.4,0.5,2.9,0.9,4.4,1.1s2.9,0.3,4.2,0.3
		c1.7,0,2.9,0,3.6-0.1c0.7,0,1.6-0.1,2.6-0.1l-2,11.4c-1.2,0.1-2.2,0.1-3.1,0.2c-0.9,0.1-2.2,0.1-3.9,0.1c-4.8,0-9.2-0.5-13.2-1.3
		c-4-0.9-7.5-2.3-10.5-4.5c-2.7-2-4.6-4.2-5.8-6.7c-1.2-2.5-1.8-5.1-1.8-7.7c0-2.9,0.4-5.4,1.3-7.8c0.9-2.3,2.5-4.5,4.8-6.5
		c2.1-1.8,4.4-3.1,7.1-4c2.7-0.9,5.4-1.3,8.2-1.3c3.1,0,6,0.4,8.5,1.2c2.5,0.8,4.7,2,6.4,3.6c2.2,2,3.6,4.4,4.4,7.1
		S172.4,119.2,172.4,122.8L172.4,122.8z M153.9,117.1c0-2.1-0.2-3.6-0.5-4.6c-0.3-1-0.9-1.5-1.7-1.5c-0.7,0-1.3,0.4-1.7,1.3
		s-0.6,2.5-0.7,4.8L153.9,117.1L153.9,117.1z"/>
	<path class="st1" d="M196.1,140.6h-21.3V86.1h21.3L196.1,140.6L196.1,140.6z"/>
	<path class="st1" d="M220.8,140.6h-21.3V86.1h21.3L220.8,140.6L220.8,140.6z"/>
	<path class="st1" d="M264.7,122.2c0,3.8,0,7.5,0,11c0,3.5,0,6,0,7.4c-1.1,0.1-3.5,0.3-7,0.4c-3.5,0.1-6.3,0.2-8.3,0.2
		c-2.5,0-5.5-0.2-9.2-0.5c-3.6-0.4-6.7-1-9.1-1.9c-2.7-1-4.7-2.3-6-4c-1.3-1.7-2-3.5-2-5.4c0-2.3,0.6-4.2,1.8-5.7
		c1.2-1.6,3.4-2.9,6.6-4c2.1-0.7,4.3-1.3,6.6-1.7s4-0.6,5.1-0.8c0-0.8-0.1-1.4-0.4-1.9c-0.3-0.5-0.9-0.9-1.7-1.3
		c-0.7-0.4-1.6-0.6-3-0.7c-1.3-0.1-2.8-0.2-4.5-0.2s-2.9,0-3.8,0c-0.9,0-1.8,0-2.8,0l1.7-11.5h5.1c6.7,0,12,0.5,15.7,1.4
		c3.7,1,6.9,2.5,9.5,4.6c2.3,1.9,3.9,4,4.6,6.2C264.3,116.3,264.7,119,264.7,122.2L264.7,122.2z M244.8,127.5v-2.7
		c0-0.7,0-1.3-0.1-1.9c-0.4,0-0.8,0.1-1.3,0.2s-0.8,0.4-1.2,0.8c-0.2,0.3-0.4,0.8-0.6,1.5s-0.3,1.4-0.3,2.1c0,0.8,0.1,1.5,0.3,2
		s0.4,1.1,0.7,1.5c0.2,0.3,0.4,0.6,0.7,0.8c0.3,0.2,0.7,0.3,1.1,0.3c0.1,0,0.2,0,0.4,0c0.1,0,0.2,0,0.2,0c0-0.6,0-1.3,0-2.1
		C244.8,129.1,244.8,128.3,244.8,127.5L244.8,127.5z"/>
	<path class="st1" d="M313.1,140.6h-20.8c0-1.1,0-2.7,0-5s0-4.9,0-8v-5.8c0-1.9,0-3.4,0-4.5c0-1.8-0.1-3-0.3-3.5
		c-0.2-0.5-0.6-0.8-1.2-0.8c-0.4,0-0.8,0.1-1.3,0.2s-0.8,0.3-1.1,0.5l0,26.9h-20.6c0-1.9,0-4.6,0-8.3s0-8.1,0-13.5
		c0-4.7,0-10.6,0-17.8c0-7.2,0-12.2,0-15h21.3l0,18.1l0,0c1.2-0.7,3-1.3,5.4-1.9c2.4-0.6,4.6-0.9,6.6-0.9c3.8,0,6.7,1,8.7,3
		s3.1,4.6,3.1,7.7c0,2.5,0,4.6,0,6.1s0,3,0,4.3c0,1.9,0,4.9,0,9C313.1,135.7,313.1,138.7,313.1,140.6L313.1,140.6z"/>
</g>
</svg>
